PathFileType	4	(X/Y/Z)	/Users/niels/Desktop/University/Third Semester/Perception and Action/Exam/Gymnastics Motion Tracking/Code for Gym Tracking/Analyzed Data/Webcam_Backflip/id8_2_trajectory_Sports2D/id8_2_trajectory_Sports2D_px_person00.trc
DataRate	CameraRate	NumFrames	NumMarkers	Units	OrigDataRate	OrigDataStartFrame	OrigNumFrames
29.714285714285715	29.714285714285715	11	22	m	29.714285714285715	52	105
Frame#	Time	Hip			RHip			RKnee			RAnkle			RBigToe			RSmallToe			RHeel			LHip			LKnee			LAnkle			LBigToe			LSmallToe			LHeel			Neck			Head			Nose			RShoulder			RElbow			RWrist			LShoulder			LElbow			LWrist		
		X1	Y1	Z1	X2	Y2	Z2	X3	Y3	Z3	X4	Y4	Z4	X5	Y5	Z5	X6	Y6	Z6	X7	Y7	Z7	X8	Y8	Z8	X9	Y9	Z9	X10	Y10	Z10	X11	Y11	Z11	X12	Y12	Z12	X13	Y13	Z13	X14	Y14	Z14	X15	Y15	Z15	X16	Y16	Z16	X17	Y17	Z17	X18	Y18	Z18	X19	Y19	Z19	X20	Y20	Z20	X21	Y21	Z21	X22	Y22	Z22
52	1.75	1.0007658645759883	-0.5518069984997611	0.0	0.9609006991386998	-0.5596889099598599	0.0	1.016788996768987	-0.7648057427391092	0.0	0.9732160569164903	-0.9700282673987058	0.0	1.061425085186743	-1.0094699208199065	0.0	1.0346219936945305	-1.0159798417058974	0.0	0.9492010511356478	-0.9979930762537123	0.0	1.0417411816679916	-0.5581950679594629	0.0	1.0624058971522052	-0.7547681580899711	0.0	0.986262734361866	-0.9270233234700296	0.0	1.0763479897659063	-0.9674082922447345	0.0	1.0668733657173135	-0.9537856221859663	0.0	0.9653023904227251	-0.9492743248063209	0.0	1.0447284053484271	-0.2456245939352522	0.0	1.0767881767345715	-0.10522581581430435	0.0	1.0899328084674016	-0.1861421015117158	0.0	0.9710795661300422	-0.2994087656683409	0.0	0.9717604076305533	-0.4729548059833222	0.0	1.0277512206638761	-0.6079221029933746	0.0	1.1073491781486497	-0.28935462554344255	0.0	1.1450849865251065	-0.4166870828595809	0.0	1.1153443270266372	-0.45115109660686686	0.0
53	1.783653846153846	1.004430950583431	-0.5582071206528693	0.0	0.9655548120263145	-0.5642094209958175	0.0	1.0231873248413452	-0.7677300343455616	0.0	0.9767148710419791	-0.9711816945165462	0.0	1.064739812649427	-1.0110567573000195	0.0	1.0375779642202447	-1.0175171869716788	0.0	0.9529401115296042	-0.9978291694964034	0.0	1.0449292544522464	-0.5628182579292829	0.0	1.0575111694666384	-0.7581248332386366	0.0	0.9774812501295377	-0.9240189601324615	0.0	1.071060533084824	-0.964640857440363	0.0	1.0592273446402682	-0.9509226586068936	0.0	0.9539220267335565	-0.9444302954181042	0.0	1.038555891742078	-0.2501234681883631	0.0	1.0670861357633015	-0.10835246369751163	0.0	1.0811195983590032	-0.18945634108034032	0.0	0.9604457642230666	-0.30640137783124377	0.0	0.9524274618475438	-0.47627475230894323	0.0	0.9931528859220485	-0.6124254080066286	0.0	1.1069849116689214	-0.2921708327998972	0.0	1.1542496742018813	-0.4191484964699762	0.0	1.10594408868725	-0.43594900129638703	0.0
54	1.8173076923076923	1.0081818715356259	-0.5644901873113621	0.0	0.9699890363232146	-0.5690213356731998	0.0	1.029579889034233	-0.7698055652035465	0.0	0.9807821115727047	-0.9722833324490748	0.0	1.0682827247206275	-1.0129637650998948	0.0	1.0408105388503677	-1.019382229276865	0.0	0.9571226229160437	-0.9974287159957222	0.0	1.0484029689335712	-0.567747678424934	0.0	1.0526822378727305	-0.7610768128461474	0.0	0.968151725920557	-0.9210544652371134	0.0	1.0628616468134036	-0.9638089753876186	0.0	1.0491906565655884	-0.950263206251527	0.0	0.9426305385422427	-0.9395943588897498	0.0	1.032449212034427	-0.2549864489209085	0.0	1.0562901988377393	-0.11285127800894475	0.0	1.071773141413109	-0.19319747182298838	0.0	0.9500579715241144	-0.31352473397620956	0.0	0.932621530051183	-0.47845011606624016	0.0	0.9523026160535366	-0.6146509251885307	0.0	1.1065958651996664	-0.2959323418703526	0.0	1.1612834856743188	-0.42261120836020005	0.0	1.095115122548098	-0.4239323618923595	0.0
55	1.8509615384615383	1.0113802505020695	-0.5697820611426935	0.0	0.9732441639415284	-0.5734992469858086	0.0	1.0358532570225547	-0.7706168638988264	0.0	0.9849864210851929	-0.9731551154101598	0.0	1.0713575996766933	-1.0149745755563628	0.0	1.0436480892701454	-1.0213169745022936	0.0	0.9612828427176898	-0.996707473819688	0.0	1.0518849537623696	-0.5721374800572568	0.0	1.049070238515626	-0.7632331974822544	0.0	0.9598494143721134	-0.9191858224843867	0.0	1.0516263393347831	-0.9653078359511166	0.0	1.03737721345398	-0.952089403111102	0.0	0.9331684365124118	-0.9360583200036732	0.0	1.026477552496993	-0.26026767028970227	0.0	1.0447339660096577	-0.11875013656048741	0.0	1.0619497964628906	-0.19711758964868004	0.0	0.9408265695076438	-0.3206524514994456	0.0	0.9131242990647428	-0.47937415651468374	0.0	0.9075626503778361	-0.6133633446513092	0.0	1.1059531341902538	-0.3002527439978136	0.0	1.1660349695036984	-0.4259398037630484	0.0	1.0834880000290297	-0.41559734403150234	0.0
56	1.8846153846153846	1.0138459240993098	-0.5738413678374653	0.0	0.9750972792190085	-0.5774626728252613	0.0	1.0419758438586046	-0.7704909857330021	0.0	0.988997640232238	-0.9738192579430639	0.0	1.0734295179176279	-1.0168147320632661	0.0	1.0456500240487547	-1.0230563060028135	0.0	0.9651395495169137	-0.9958186135203686	0.0	1.0551821980772054	-0.5756225722636028	0.0	1.047477447665884	-0.7646972535183307	0.0	0.9536797959969022	-0.9191143224573973	0.0	1.0381317252336337	-0.9685693497324136	0.0	1.0250688138466857	-0.955605751185813	0.0	0.9265953360358982	-0.9347847181828817	0.0	1.0207168621395355	-0.2658539163637813	0.0	1.0330530314489352	-0.1255504966402012	0.0	1.0520172114877442	-0.20089737747821373	0.0	0.9330887300095567	-0.3277154973268896	0.0	0.8941524004608824	-0.4791653787627239	0.0	0.8617787606052433	-0.6077579037427918	0.0	1.104913438418237	-0.3044977223158038	0.0	1.1686319999255743	-0.4282161745112413	0.0	1.071610073061098	-0.4108305835216581	0.0
57	1.9182692307692306	1.0158037455248976	-0.5769049279070515	0.0	0.9759198514702927	-0.5809730232527605	0.0	1.0477492095611758	-0.7701005104159215	0.0	0.9925673789769769	-0.9744078580271526	0.0	1.0742136294911253	-1.0182944592557142	0.0	1.046602342625157	-1.0244213982169488	0.0	0.9685975564865882	-0.995108343559316	0.0	1.0582647186336915	-0.5782778552398516	0.0	1.0480408473465699	-0.7657721199885905	0.0	0.9500034398420335	-0.9205094385471944	0.0	1.0240859802689166	-0.9721217822814286	0.0	1.0139440636732369	-0.9591638690466556	0.0	0.9231214357274719	-0.9355351221702773	0.0	1.01524846561548	-0.27137956204460556	0.0	1.0219612962086675	-0.13247962132788096	0.0	1.0425539564158735	-0.2042571369868272	0.0	0.9266735644517216	-0.3344350080736728	0.0	0.8756873345784123	-0.47764141733871285	0.0	0.8176539179273756	-0.5973167755857844	0.0	1.1034012595466902	-0.3080205691486755	0.0	1.1693004286983584	-0.4290470500804749	0.0	1.060081367185156	-0.4088667531384455	0.0
58	1.9519230769230769	1.0173918938946374	-0.5792342968721534	0.0	0.9760795644640242	-0.5839797445465503	0.0	1.0527161098032287	-0.7699001122505025	0.0	0.9954139954537004	-0.9749801160410646	0.0	1.073706767605898	-1.0193181688513677	0.0	1.0464343683375923	-1.0252818870515037	0.0	0.9715693929434926	-0.9948907652295693	0.0	1.0609957784513717	-0.5802756517950172	0.0	1.0501625991686048	-0.7665673743611116	0.0	0.9485089541277625	-0.9224574442420436	0.0	1.0115075257058401	-0.9745886948986152	0.0	1.0054517705108772	-0.9613612391277081	0.0	0.9220931437089704	-0.9372846263687247	0.0	1.0101490262563875	-0.2763136903887955	0.0	1.0120366227989857	-0.13878776619884547	0.0	1.0340285811604524	-0.20698112906289665	0.0	0.9212883949531875	-0.34021734617244737	0.0	0.8578284327439891	-0.47413700299499695	0.0	0.7773024847893735	-0.5817411663643578	0.0	1.1013969152993468	-0.31037979152977735	0.0	1.1683461448957129	-0.4285004507845784	0.0	1.049536612185732	-0.40840949361518786	0.0
59	1.985576923076923	1.0185158113541757	-0.5808382266169323	0.0	0.9757675249210714	-0.5862341703177766	0.0	1.0563219939268915	-0.7699236911508778	0.0	0.9972743262396175	-0.9754511739329099	0.0	1.0721617812947077	-1.0198195608298708	0.0	1.0452660931308049	-1.0255525102308392	0.0	0.9738717534463466	-0.9951712277211057	0.0	1.0630898199091634	-0.5816595534120231	0.0	1.0528681668309243	-0.7669521558022475	0.0	0.9485107588642412	-0.9240348031019918	0.0	1.0017077199893822	-0.9753853424477387	0.0	1.0001472623771015	-0.9617361855997087	0.0	0.9223549215277345	-0.9389658380579463	0.0	1.005479789753515	-0.2801066807185212	0.0	1.0036142085925979	-0.1438606421527219	0.0	1.0266547809651867	-0.20888217721187488	0.0	0.9167376323575538	-0.3443858370584876	0.0	0.8409267978786198	-0.46796299696290095	0.0	0.7420535715017571	-0.5612602741169691	0.0	1.098988095928032	-0.3113897203966442	0.0	1.1661590881214137	-0.4268208305206735	0.0	1.0405186309137262	-0.4081106031096008	0.0
60	2.019230769230769	1.01911986837646	-0.581488897749118	0.0	0.975199610968039	-0.5874270654324414	0.0	1.0582128227360261	-0.7698861387077058	0.0	0.9981204374064934	-0.9756163998109258	0.0	1.0700091949054835	-1.0197739422733951	0.0	1.0434888966165334	-1.02527842469566	0.0	0.9753913556572817	-0.9955769287778993	0.0	1.0643462451495969	-0.5823152812014706	0.0	1.0552704457180637	-0.7667489766099403	0.0	0.9493011939372109	-0.9245272471291648	0.0	0.9948275926838593	-0.9745572839429784	0.0	0.9975784483520208	-0.9605838933921708	0.0	0.922913914931584	-0.939792582207956	0.0	1.0013129793078712	-0.2823409010459167	0.0	0.9967656684400173	-0.14725174200376384	0.0	1.0204312721849575	-0.20979709793320664	0.0	0.9129070280104351	-0.34651389247823805	0.0	0.8254331357992912	-0.4589211375802878	0.0	0.712412525733916	-0.5368246343474001	0.0	1.0963861650001367	-0.31107874235546545	0.0	1.163211447030664	-0.42426769721023344	0.0	1.0333775207462421	-0.4070536856019851	0.0
61	2.0528846153846154	1.01930512619598	-0.5809802709315293	0.0	0.9746221825848801	-0.5873858385493179	0.0	1.0583858665295538	-0.7694479381039936	0.0	0.99823322216271	-0.9752404508594581	0.0	1.0677231041199922	-1.019235813533716	0.0	1.041636675166089	-1.0246297045969168	0.0	0.9762763073596684	-0.9956278328748215	0.0	1.0647761396879363	-0.5821091258686912	0.0	1.0567791686707493	-0.7659277059676113	0.0	0.9503223747100314	-0.9236731102180914	0.0	0.9904348799222559	-0.9725411785082154	0.0	0.9969848748560459	-0.9586060800442302	0.0	0.9233061381848451	-0.939432247072128	0.0	0.9977538983472262	-0.28285003308318823	0.0	0.9913651672566905	-0.14874537078984665	0.0	1.0152123533420396	-0.20962054881828426	0.0	0.9097175154040554	-0.3465351650434502	0.0	0.8116813404810146	-0.4474022321073672	0.0	0.6883182025309748	-0.5098424750068108	0.0	1.0938701888876796	-0.3096695167690954	0.0	1.1600183544635443	-0.4211490577280436	0.0	1.0281947061292331	-0.4048832084601981	0.0
62	2.0865384615384612	1.0191698320917353	-0.5793474004690184	0.0	0.974094881172741	-0.5861718491401506	0.0	1.0571128792335502	-0.7684659016758829	0.0	0.9980310029879403	-0.9742133947160962	0.0	1.0657253964759987	-1.0183884816017366	0.0	1.040166107306042	-1.0238337496044625	0.0	0.9768528882048312	-0.9950964434968617	0.0	1.0645380546502554	-0.5810262136120243	0.0	1.0571822740739372	-0.7646608433523288	0.0	0.9512215384913077	-0.9217822729168684	0.0	0.9883074719849992	-0.9700898619073932	0.0	0.99801721344713	-0.9566711699254997	0.0	0.9234586317506339	-0.9380499335256419	0.0	0.9949034559168826	-0.28174492150028135	0.0	0.9872224650095692	-0.14838996003641228	0.0	1.0108099570103122	-0.20835213802963345	0.0	0.9071324654796293	-0.3446145787063065	0.0	0.7998548215919133	-0.43414791651872453	0.0	0.6695501413526737	-0.4817073506920852	0.0	1.091666783366989	-0.3074797515775296	0.0	1.157015471956314	-0.41780151631565243	0.0	1.0247567261931385	-0.4016021345703934	0.0
